<svg xmlns="http://www.w3.org/2000/svg" width="42.331" height="42.331" viewBox="0 0 42.331 42.331">
  <g id="info_5_" data-name="info (5)" transform="translate(0.001)">
    <g id="Group_126" data-name="Group 126" transform="translate(-0.001)">
      <path id="Path_87" data-name="Path 87" d="M21.165,0A21.165,21.165,0,1,0,42.331,21.165,21.153,21.153,0,0,0,21.165,0Zm2.174,29.567c0,.669-.975,1.337-2.173,1.337-1.254,0-2.145-.669-2.145-1.337V18.952c0-.78.892-1.31,2.145-1.31,1.2,0,2.173.529,2.173,1.31ZM21.166,15.08a2.179,2.179,0,0,1-2.284-2.006A2.158,2.158,0,0,1,21.166,11.1a2.149,2.149,0,0,1,2.257,1.978A2.171,2.171,0,0,1,21.166,15.08Z" fill="#fff"/>
    </g>
  </g>
</svg>
