<svg xmlns="http://www.w3.org/2000/svg" width="46.178" height="42.331" viewBox="0 0 46.178 42.331">
  <g id="image-gallery" transform="translate(-0.001)">
    <g id="Group_125" data-name="Group 125" transform="translate(0.001 5.772)">
      <g id="Group_124" data-name="Group 124" transform="translate(0 7.566)">
        <path id="Path_84" data-name="Path 84" d="M12.025,29.266A7.2,7.2,0,0,1,5.21,24.358l-.067-.221a7.019,7.019,0,0,1-.333-2.086V8.932L.142,24.514a4.37,4.37,0,0,0,3.063,5.3l29.753,7.968a4.413,4.413,0,0,0,1.108.142,4.29,4.29,0,0,0,4.158-3.146l1.734-5.513Z" transform="translate(-0.001 -8.932)" fill="#fff"/>
      </g>
      <path id="Path_85" data-name="Path 85" d="M10.848,12.7A3.848,3.848,0,1,0,7,8.848,3.852,3.852,0,0,0,10.848,12.7Z" transform="translate(6.468 -5)" fill="#fff"/>
    </g>
    <path id="Path_86" data-name="Path 86" d="M37.672,2H8.81A4.817,4.817,0,0,0,4,6.81V27.976a4.817,4.817,0,0,0,4.81,4.81H37.672a4.817,4.817,0,0,0,4.81-4.81V6.81A4.817,4.817,0,0,0,37.672,2ZM8.81,5.848H37.672a.962.962,0,0,1,.962.962V20.47l-6.078-7.092a3.446,3.446,0,0,0-2.58-1.183,3.364,3.364,0,0,0-2.571,1.214l-7.146,8.578-2.328-2.322a3.377,3.377,0,0,0-4.772,0L7.848,24.972V6.81a.962.962,0,0,1,.962-.962Z" transform="translate(3.696 -2)" fill="#fff"/>
  </g>
</svg>
