<svg xmlns="http://www.w3.org/2000/svg" width="512" height="511.999" viewBox="0 0 512 511.999"><g transform="translate(0 -0.001)"><path d="M498,447H16c-9.284,3-16,9.716-16,18v32a15,15,0,0,0,15,15H497a15,15,0,0,0,15-15V465C512,456.716,505.284,450,498,447Z" fill="#fff"/><path d="M502.749,101.146l-241-100a15,15,0,0,0-11.5,0l-241,100A15,15,0,0,0,0,115v30a15,15,0,0,0,15,15H497a15,15,0,0,0,15-15V115a15,15,0,0,0-9.251-13.854ZM346,115H166a15,15,0,0,1,0-30H346a15,15,0,0,1,0,30Z" fill="#fff"/><path d="M28.5,390v30h115V390a15,15,0,0,0-15-15h-85A15,15,0,0,0,28.5,390Z" fill="#fff"/><path d="M48.5,190h75V345h-75Z" fill="#fff"/><path d="M388.5,190h75V345h-75Z" fill="#fff"/><path d="M368.5,390v30h115V390a15,15,0,0,0-15-15h-85A15,15,0,0,0,368.5,390Z" fill="#fff"/><path d="M256,350a15.017,15.017,0,0,1-15-15,15,15,0,0,0-30,0,45.071,45.071,0,0,0,30,42.42V385a15,15,0,0,0,30,0v-7.58A45,45,0,0,0,256,290a15,15,0,1,1,15-15,15,15,0,0,0,30,0,45.071,45.071,0,0,0-30-42.42V225a15,15,0,0,0-30,0v7.58A45,45,0,0,0,256,320a15,15,0,0,1,0,30Z" fill="#fff"/></g></svg>