<svg xmlns="http://www.w3.org/2000/svg" width="13.001" height="14.843" viewBox="0 0 13.001 14.843">
  <path id="Swiftdrop" d="M9.594,14.843H7.559L6.275,12.574,4.992,14.842H2.136l.151-2.558-.014-.015.393-.127L1.484,8.522H3.477L3.286,8.6l.53,1.3,6.432-2.581-.53-1.3L6.6,7.269,6.263,5.062l5.3-1.994L13,7.657,9.594,11.495ZM5.783,8.161H4.2L2.591,2.928l2.262-.873L6.279,6.644l-.5,1.518Zm-2.056,0H1.369l-.7-2.146L0,3.907l2.126-.84ZM6.173,4.833l-.932-3.01,2.126-.811L8.355,4.05Zm2.662-1L7.851.829,10.008,0l.985,2.972-2.158.865Z"/>
</svg>
