<svg xmlns="http://www.w3.org/2000/svg" width="22.671" height="25.881" viewBox="0 0 22.671 25.881">
  <path id="Swiftdrop" d="M16.729,25.881H13.181l-2.238-3.955L8.7,25.88H3.725l.263-4.46-.024-.027.686-.222L2.587,14.86H6.064l-.333.134.924,2.274,11.215-4.5-.925-2.275L11.51,12.675l-.59-3.849L20.162,5.35l2.508,8-5.941,6.691ZM10.083,14.23H7.328L4.518,5.1,8.463,3.583l2.485,8-.865,2.647Zm-3.584,0H2.387L1.164,10.488,0,6.813,3.706,5.349Zm4.265-5.8L9.14,3.18l3.706-1.414,1.723,5.3Zm4.641-1.736L13.689,1.445,17.452,0l1.717,5.182L15.405,6.69Z" fill="#fff"/>
</svg>
