<svg xmlns="http://www.w3.org/2000/svg" width="22.754" height="22.754" viewBox="0 0 22.754 22.754">
  <g id="Group_555" data-name="Group 555" transform="translate(5457.377 14486)">
    <path id="messenger_1_" data-name="messenger (1)" d="M11.377,0A11.378,11.378,0,0,0,1.509,17.04L.043,21.593a.889.889,0,0,0,1.118,1.118l4.552-1.466A11.377,11.377,0,1,0,11.377,0Zm0,20.976A9.571,9.571,0,0,1,6.3,19.522a.889.889,0,0,0-.744-.092L2.266,20.488,3.324,17.2a.889.889,0,0,0-.093-.744,9.6,9.6,0,1,1,8.145,4.518Zm1.111-9.6a1.111,1.111,0,1,1-1.111-1.111A1.111,1.111,0,0,1,12.488,11.377Zm4.444,0a1.111,1.111,0,1,1-1.111-1.111A1.111,1.111,0,0,1,16.932,11.377Zm-8.888,0a1.111,1.111,0,1,1-1.111-1.111A1.111,1.111,0,0,1,8.044,11.377Zm0,0" transform="translate(-5457.377 -14486)" fill="#fff"/>
  </g>
</svg>
