<svg xmlns="http://www.w3.org/2000/svg" width="50.336" height="42.331" viewBox="0 0 50.336 42.331">
  <g id="cards-with-dollar-sign" transform="translate(0 4)">
    <g id="Group_127" data-name="Group 127" transform="translate(0 -4)">
      <path id="Path_89" data-name="Path 89" d="M22.531,56.855a3.35,3.35,0,0,1,1.981-.721v4.941a6.62,6.62,0,0,1-2.174-1.055,1.987,1.987,0,0,1-.592-1.518A2.589,2.589,0,0,1,22.531,56.855Zm19.3-15.878a4.709,4.709,0,0,0-6.254-3.552L10.011,44.271H42.693Zm8.5,11.465v22a5.031,5.031,0,0,1-5.07,5.07H5.07A5.031,5.031,0,0,1,0,74.444v-22a5.031,5.031,0,0,1,5.07-5.07H45.255A5.116,5.116,0,0,1,50.336,52.441ZM32.811,67.458a4.785,4.785,0,0,0-1.582-3.821,10.558,10.558,0,0,0-4.812-2.045h-.065V56.252a9.408,9.408,0,0,1,4.08,1.647l1.841-2.637a11.75,11.75,0,0,0-5.931-2.11V51.7H24.5v1.389A6.814,6.814,0,0,0,20.023,54.8a5.267,5.267,0,0,0-1.712,4.015,4.5,4.5,0,0,0,1.518,3.692,11.49,11.49,0,0,0,4.683,2.045v5.533a10.027,10.027,0,0,1-4.941-2.508l-2.11,2.508a12.533,12.533,0,0,0,6.986,3.1v2.11h1.841V73.249a7.264,7.264,0,0,0,4.683-1.712A5.167,5.167,0,0,0,32.811,67.458Zm-6.459-2.433V70.16a3.639,3.639,0,0,0,2.174-.786,2.089,2.089,0,0,0,.786-1.647,2.135,2.135,0,0,0-.592-1.582A6.034,6.034,0,0,0,26.352,65.025Z" transform="translate(0 -37.184)" fill="#fff"/>
    </g>
  </g>
</svg>
