<svg xmlns="http://www.w3.org/2000/svg" width="146" height="100.393" viewBox="0 0 146 100.393">
  <g id="runer-silhouette-running-fast" transform="translate(0 -76.191)">
    <g id="_x33_6_24_" transform="translate(0 76.191)">
      <g id="Group_556" data-name="Group 556">
        <path id="Path_228" data-name="Path 228" d="M145.445,99.486h45.048a2.143,2.143,0,0,0,0-4.287H145.445a2.143,2.143,0,0,0,0,4.287Z" transform="translate(-100.412 -89.51)" fill="#fff"/>
        <path id="Path_229" data-name="Path 229" d="M10.835,169.5H55.883a2.143,2.143,0,1,0,0-4.286H10.835a2.143,2.143,0,1,0,0,4.286Z" transform="translate(-6.091 -138.571)" fill="#fff"/>
        <path id="Path_230" data-name="Path 230" d="M56.258,248.2a2.143,2.143,0,0,0,2.143,2.144h45.047a2.143,2.143,0,1,0,0-4.287H58.4A2.143,2.143,0,0,0,56.258,248.2Z" transform="translate(-39.42 -195.215)" fill="#fff"/>
        <path id="Path_231" data-name="Path 231" d="M42.619,336.44H2.143a2.143,2.143,0,1,0,0,4.286H42.619a2.143,2.143,0,1,0,0-4.286Z" transform="translate(0 -258.548)" fill="#fff"/>
        <path id="Path_232" data-name="Path 232" d="M358.318,99.6A11.707,11.707,0,1,0,346.61,87.9,11.707,11.707,0,0,0,358.318,99.6Z" transform="translate(-242.871 -76.191)" fill="#fff"/>
        <path id="Path_233" data-name="Path 233" d="M243.669,136.82c-6.722,9.416-15.723,10.506-25.409,4.756-.659-.391-3.585-2-4.232-2.387-15.582-9.25-31.145-5.623-41.583,8.994-4.435,6.217,5.823,12.109,10.208,5.965,5.393-7.552,12.25-9.737,19.749-7.345-3.84,6.665-7.2,13.29-11.934,22.7s-15.2,16.929-25.253,11.05c-7.253-4.24-13.795,6.181-6.563,10.407,13.724,8.021,29.816,3.1,38.03-7.331a6.437,6.437,0,0,0,.916.405c6.711,2.338,15.508,8.563,18.188,10.769s7.284,13.445,10.018,19.092c3.317,6.852,14.028,1.861,10.7-5.02-3.1-6.407-8.3-19.194-12.359-22.429-3.255-2.595-9.574-7.423-14.933-10.163q5.439-10.535,11.376-20.8c12.669,3.882,24.71-.691,33.286-12.7C258.313,136.567,248.057,130.675,243.669,136.82Z" transform="translate(-108.965 -116.777)" fill="#fff"/>
      </g>
    </g>
  </g>
</svg>
